<svg viewBox="0 0 1440 800" xmlns="http://www.w3.org/2000/svg" preserveAspectRatio="xMidYMid slice">
  <defs>
    <!-- Definição do Gradiente Linear para as Linhas de Plantação -->
    <!-- Ajustado para talvez começar mais claro e ir para o escuro ou vice-versa -->
    <linearGradient id="lineGradient" x1="0%" y1="0%" x2="100%" y2="0%">
      <!-- Gradiente da esquerda para a direita -->
      <stop offset="0%" style="stop-color:#F8F8FF;stop-opacity:0.6" /> <!-- Branco Gelo mais transparente -->
      <stop offset="50%" style="stop-color:#228B22;stop-opacity:0.8" /> <!-- Verde Folha -->
      <stop offset="100%" style="stop-color:#556B2F;stop-opacity:0.9" /> <!-- Verde Musgo escuro -->
    </linearGradient>

    <!-- Definição do Filtro para Efeito de Brilho (Glow) -->
    <filter id="glow">
      <!-- Desfoque o elemento original -->
      <feGaussianBlur in="SourceGraphic" stdDeviation="6" result="blur"/> {/* Aumentado para brilho maior */}
      <!-- Crie uma cor sólida para o brilho -->
      <feFlood flood-color="#32CD32" flood-opacity="0.9" result="floodColor"/> {/* Cor do brilho (LimeGreen) - mais vibrante */}
      <!-- Combine a cor sólida com o desfoque -->
      <feComposite in="floodColor" in2="blur" operator="in" result="coloredBlur"/>
      <!-- Combine o brilho colorido com o gráfico original -->
      <feBlend in="SourceGraphic" in2="coloredBlur" mode="normal"/>
    </filter>

    <!-- Você pode definir keyframes aqui também, se preferir -->
    <style>
      /* Estilos para as folhas flutuantes */
      .folha {
        fill: #228B22; /* Verde Folha */
        opacity: 0.8;
        animation: float 6s ease-in-out infinite;
      }

      /* Estilos para as linhas de plantação */
      .linha-plantacao {
        fill: none;
        stroke-width: 2;
        opacity: 0.8; /* Ajuste a opacidade se necessário */
        animation: wave 8s linear infinite;
        stroke: url(#lineGradient); /* Aplica o gradiente definido acima */
      }

      /* Estilos base para os vagalumes */
      .vagalume {
          fill: #32CD32; /* Cor dos vagalumes (LimeGreen) - mais vibrante */
          opacity: 0.2; /* Começa invisível */
          transform-origin: center; /* Garante que a animação de escala (se houver) seja do centro */
          animation: float 9s ease-in-out infinite;
      }

      /* Keyframes para animações internas (se preferir definir aqui) */
      @keyframes float {
        0%, 100% { transform: translateY(0) rotate(0deg); }
        50% { transform: translateY(-20px) rotate(5deg); }
      }

      @keyframes wave {
         0% { stroke-dashoffset: 0; }
         100% { stroke-dashoffset: 1000; } /* Ajuste conforme o path */
      }

    </style>
  </defs>

  <!-- Exemplo de linhas de plantação - USAM O GRADIENTE -->
  <path class="linha-plantacao" d="M0 400 Q 360 300 720 400 T 1440 400" stroke-dasharray="200 100"/>
  <path class="linha-plantacao" d="M0 450 Q 360 350 720 450 T 1440 450" stroke-dasharray="250 150"/>
  <path class="linha-plantacao" d="M0 500 Q 360 400 720 500 T 1440 500" stroke-dasharray="300 200"/>

  <!-- Exemplo de folhas flutuantes -->
  <circle class="folha" cx="200" cy="100" r="10"/>
  <circle class="folha" cx="500" cy="50" r="12" style="animation-delay: 1s;"/>
  <circle class="folha" cx="800" cy="150" r="8" style="animation-delay: 2s;"/>
  <circle class="folha" cx="1100" cy="80" r="15" style="animation-delay: 0.5s;"/>


  <circle class="vagalume" cx="300" cy="700" r="5" style="animation-delay: 0.8s;"/>
  <circle class="vagalume" cx="500" cy="650" r="3" style="animation-delay: 1.5s;"/>
  <circle class="vagalume" cx="700" cy="750" r="6" style="animation-delay: 0.3s;"/>
  <circle class="vagalume" cx="900" cy="680" r="4" style="animation-delay: 1.1s;"/>
  <circle class="vagalume" cx="1100" cy="720" r="5" style="animation-delay: 0.6s;"/>
  <circle class="vagalume" cx="1300" cy="630" r="3" style="animation-delay: 1.8s;"/>
  <circle class="vagalume" cx="250" cy="550" r="4" style="animation-delay: 0.2s;"/>
  <circle class="vagalume" cx="450" cy="580" r="5" style="animation-delay: 0.9s;"/>
  <circle class="vagalume" cx="650" cy="520" r="3" style="animation-delay: 1.6s;"/>
  <circle class="vagalume" cx="850" cy="560" r="6" style="animation-delay: 0.4s;"/>
  <circle class="vagalume" cx="1050" cy="510" r="4" style="animation-delay: 1.2s;"/>
  <circle class="vagalume" cx="1250" cy="540" r="5" style="animation-delay: 0.7s;"/>
  <circle class="vagalume" cx="150" cy="480" r="3" style="animation-delay: 1.9s;"/>
  <circle class="vagalume" cx="350" cy="420" r="4" style="animation-delay: 0.0s;"/>
  <circle class="vagalume" cx="550" cy="460" r="5" style="animation-delay: 0.7s;"/>
  <circle class="vagalume" cx="750" cy="410" r="3" style="animation-delay: 1.4s;"/>
  <circle class="vagalume" cx="950" cy="440" r="6" style="animation-delay: 0.2s;"/>
  <circle class="vagalume" cx="1150" cy="390" r="4" style="animation-delay: 0.9s;"/>
  <circle class="vagalume" cx="1350" cy="430" r="5" style="animation-delay: 1.7s;"/>
  <circle class="vagalume" cx="50" cy="50" r="3" style="animation-delay: 0.3s;"/>
  <circle class="vagalume" cx="250" cy="80" r="4" style="animation-delay: 1.0s;"/>
  <circle class="vagalume" cx="450" cy="20" r="5" style="animation-delay: 1.7s;"/>
  <circle class="vagalume" cx="650" cy="100" r="3" style="animation-delay: 0.5s;"/>
  <circle class="vagalume" cx="850" cy="30" r="6" style="animation-delay: 1.3s;"/>
  <circle class="vagalume" cx="1050" cy="120" r="4" style="animation-delay: 0.8s;"/>
  <circle class="vagalume" cx="1250" cy="60" r="5" style="animation-delay: 1.5s;"/>
  <circle class="vagalume" cx="100" cy="200" r="4" style="animation-delay: 0.2s;"/>
  <circle class="vagalume" cx="300" cy="250" r="5" style="animation-delay: 0.9s;"/>
  <circle class="vagalume" cx="500" cy="180" r="3" style="animation-delay: 1.6s;"/>
  <circle class="vagalume" cx="700" cy="280" r="6" style="animation-delay: 0.4s;"/>
  <circle class="vagalume" cx="900" cy="210" r="4" style="animation-delay: 1.1s;"/>
  <circle class="vagalume" cx="1100" cy="260" r="5" style="animation-delay: 0.6s;"/>
  <circle class="vagalume" cx="1300" cy="190" r="3" style="animation-delay: 1.8s;"/>
  <circle class="vagalume" cx="50" cy="350" r="3" style="animation-delay: 0.0s;"/>
  <circle class="vagalume" cx="250" cy="300" r="4" style="animation-delay: 0.7s;"/>
  <circle class="vagalume" cx="450" cy="380" r="5" style="animation-delay: 1.4s;"/>
  <circle class="vagalume" cx="650" cy="320" r="3" style="animation-delay: 0.2s;"/>
  <circle class="vagalume" cx="850" cy="390" r="6" style="animation-delay: 0.9s;"/>
  <circle class="vagalume" cx="1050" cy="310" r="4" style="animation-delay: 1.6s;"/>
  <circle class="vagalume" cx="1250" cy="360" r="5" style="animation-delay: 0.4s;"/>
  <circle class="vagalume" cx="100" cy="450" r="4" style="animation-delay: 0.3s;"/>
  <circle class="vagalume" cx="300" cy="400" r="5" style="animation-delay: 1.0s;"/>
  <circle class="vagalume" cx="500" cy="480" r="3" style="animation-delay: 1.7s;"/>
  <circle class="vagalume" cx="700" cy="420" r="6" style="animation-delay: 0.5s;"/>
  <circle class="vagalume" cx="900" cy="490" r="4" style="animation-delay: 1.3s;"/>
  <circle class="vagalume" cx="1100" cy="430" r="5" style="animation-delay: 0.8s;"/>
  <circle class="vagalume" cx="1300" cy="460" r="3" style="animation-delay: 1.5s;"/>
  <circle class="vagalume" cx="50" cy="580" r="3" style="animation-delay: 0.1s;"/>
  <circle class="vagalume" cx="250" cy="620" r="4" style="animation-delay: 0.8s;"/>
  <circle class="vagalume" cx="450" cy="550" r="5" style="animation-delay: 1.5s;"/>
  <circle class="vagalume" cx="650" cy="650" r="3" style="animation-delay: 0.3s;"/>
  <circle class="vagalume" cx="850" cy="590" r="6" style="animation-delay: 1.1s;"/>
  <circle class="vagalume" cx="1050" cy="630" r="4" style="animation-delay: 0.6s;"/>
  <circle class="vagalume" cx="1250" cy="570" r="5" style="animation-delay: 1.8s;"/>
  <circle class="vagalume" cx="100" cy="720" r="4" style="animation-delay: 0.2s;"/>
  <circle class="vagalume" cx="300" cy="780" r="5" style="animation-delay: 0.9s;"/>
  <circle class="vagalume" cx="500" cy="710" r="3" style="animation-delay: 1.6s;"/>
  <circle class="vagalume" cx="700" cy="790" r="6" style="animation-delay: 0.4s;"/>
  <circle class="vagalume" cx="900" cy="730" r="4" style="animation-delay: 1.1s;"/>
  <circle class="vagalume" cx="1100" cy="770" r="5" style="animation-delay: 0.6s;"/>
  <circle class="vagalume" cx="1300" cy="700" r="3" style="animation-delay: 1.8s;"/>
  <circle class="vagalume" cx="150" cy="680" r="5" style="animation-delay: 0.4s;"/>
  <circle class="vagalume" cx="350" cy="620" r="3" style="animation-delay: 1.1s;"/>
  <circle class="vagalume" cx="550" cy="660" r="4" style="animation-delay: 0.6s;"/>
  <circle class="vagalume" cx="750" cy="610" r="5" style="animation-delay: 1.3s;"/>
  <circle class="vagalume" cx="950" cy="640" r="3" style="animation-delay: 0.1s;"/>
  <circle class="vagalume" cx="1150" cy="590" r="6" style="animation-delay: 0.9s;"/>
  <circle class="vagalume" cx="1350" cy="620" r="4" style="animation-delay: 1.6s;"/>
  <circle class="vagalume" cx="100" cy="520" r="5" style="animation-delay: 0.0s;"/>
  <circle class="vagalume" cx="300" cy="500" r="3" style="animation-delay: 0.7s;"/>
  <circle class="vagalume" cx="500" cy="480" r="4" style="animation-delay: 1.4s;"/>
  <circle class="vagalume" cx="700" cy="490" r="5" style="animation-delay: 0.2s;"/>
  <circle class="vagalume" cx="900" cy="470" r="3" style="animation-delay: 0.9s;"/>
  <circle class="vagalume" cx="1100" cy="450" r="6" style="animation-delay: 1.6s;"/>
  <circle class="vagalume" cx="1300" cy="470" r="4" style="animation-delay: 0.4s;"/>
  <!-- Continue adicionando vagalumes espalhados por todo o viewBox (0-1440, 0-800) -->

</svg>
